<?xml version="1.0" encoding="utf-8"?>
<!-- Generator: Adobe Illustrator 24.2.1, SVG Export Plug-In . SVG Version: 6.00 Build 0)  -->
<svg version="1.1" id="Layer_1" xmlns="http://www.w3.org/2000/svg" xmlns:xlink="http://www.w3.org/1999/xlink" x="0px" y="0px"
	 viewBox="0 0 92.16 49.83" style="enable-background:new 0 0 92.16 49.83;" xml:space="preserve">
<style type="text/css">
	.st0{fill:#FFFFFF;}
</style>
<g>
	<path class="st0" d="M32.63,14.05L13.76,32.92c-0.88,0.88-0.88,2.33,0,3.22l0,0c0.88,0.88,2.33,0.88,3.22,0l18.87-18.87
		c0.88-0.88,0.88-2.33,0-3.22l0,0C34.96,13.16,33.51,13.16,32.63,14.05z"/>
	<path class="st0" d="M65.5,8.14L40.72,32.92c-0.88,0.88-0.88,2.33,0,3.22l0,0c0.88,0.88,2.33,0.88,3.22,0l24.78-24.78
		c0.88-0.88,0.88-2.33,0-3.22v0C67.83,7.25,66.39,7.25,65.5,8.14z"/>
	<path class="st0" d="M42.06,32.28H15.37c-1.25,0-2.27,1.02-2.27,2.27v0c0,1.25,1.02,2.27,2.27,2.27h26.69
		c1.25,0,2.27-1.02,2.27-2.27v0C44.33,33.3,43.31,32.28,42.06,32.28z"/>
	<path class="st0" d="M60.95,13.38H34.26c-1.25,0-2.27,1.02-2.27,2.27v0c0,1.25,1.02,2.27,2.27,2.27l26.69,0
		c1.25,0,2.27-1.02,2.27-2.27v0C63.23,14.4,62.2,13.38,60.95,13.38z"/>
	<path class="st0" d="M36.67,4.66l-8.2,0c-1.25,0-2.27,1.02-2.27,2.27v0c0,1.25,1.02,2.27,2.27,2.27h8.2c1.25,0,2.27-1.02,2.27-2.27
		v0C38.95,5.69,37.92,4.66,36.67,4.66z"/>
	<path class="st0" d="M46.47,39.88h-6.54c-1.15,0-2.08,0.94-2.08,2.08v0.38c0,1.15,0.94,2.08,2.08,2.08h6.54
		c1.15,0,2.08-0.94,2.08-2.08v-0.38C48.56,40.82,47.62,39.88,46.47,39.88z"/>
	<path class="st0" d="M72.27-0.2l-6.54,0c-1.15,0-2.08,0.94-2.08,2.08v0.38c0,1.15,0.94,2.08,2.08,2.08l6.54,0
		c1.15,0,2.08-0.94,2.08-2.08V1.88C74.36,0.74,73.42-0.2,72.27-0.2z"/>
	<path class="st0" d="M63.57,2.82l10.87,31.8c0.4,1.18,1.7,1.82,2.89,1.42l0,0c1.18-0.4,1.82-1.7,1.42-2.89L67.88,1.35
		c-0.4-1.18-1.7-1.82-2.89-1.42l0,0C63.81,0.34,63.17,1.64,63.57,2.82z"/>
	<path class="st0" d="M30.26,9.21l10.87,31.8c0.4,1.18,1.7,1.82,2.89,1.42l0,0c1.18-0.4,1.82-1.7,1.42-2.89L34.56,7.74
		c-0.4-1.18-1.7-1.82-2.89-1.42l0,0C30.49,6.73,29.85,8.02,30.26,9.21z"/>
	<path class="st0" d="M15.34,19.15C6.87,19.15,0,26.02,0,34.49c0,8.47,6.87,15.34,15.34,15.34c8.47,0,15.34-6.87,15.34-15.34
		C30.68,26.02,23.81,19.15,15.34,19.15z M15.34,44.74c-13.22,0-13.19-20.51,0-20.51C28.56,24.24,28.53,44.74,15.34,44.74z"/>
	<path class="st0" d="M76.82,19.15c-8.47,0-15.34,6.87-15.34,15.34c0,8.47,6.87,15.34,15.34,15.34c8.47,0,15.34-6.87,15.34-15.34
		C92.16,26.02,85.29,19.15,76.82,19.15z M76.82,44.74c-13.22,0-13.19-20.51,0-20.51C90.04,24.24,90.02,44.74,76.82,44.74z"/>
</g>
</svg>
