<?xml version="1.0" encoding="utf-8"?>
<!-- Generator: Adobe Illustrator 24.2.1, SVG Export Plug-In . SVG Version: 6.00 Build 0)  -->
<svg version="1.1" id="Layer_1" xmlns="http://www.w3.org/2000/svg" xmlns:xlink="http://www.w3.org/1999/xlink" x="0px" y="0px"
	 viewBox="0 0 92.3 40.14" style="enable-background:new 0 0 92.3 40.14;" xml:space="preserve">
<style type="text/css">
	.st0{fill:#FFFFFF;}
</style>
<g>
	<path class="st0" d="M0.01,30.09c0.02-1.23,0.04-2.47,0.04-2.47l0.19-10.93c0.02-0.94,0.18-1.72,0.49-2.37
		c0.64-1.34,1.93-2.12,3.94-2.59l0.85-0.21l0.36-0.1c4.56-1.27,8.62-1.94,12.5-4.16C30.04,0.58,45.68-3.22,57.62,3.61
		c3.72,2.13,7.03,5.24,11.22,6.14c3.42,0.73,7.29,0.9,10.77,1.28c8.71,0.96,15.03,9.95,11.87,18.33C91.1,30.37,90.08,31,89,30.99"/>
	<path class="st0" d="M15.46,22.7c-4.82,0-8.72,3.9-8.72,8.72c0,4.82,3.9,8.72,8.72,8.72c4.82,0,8.72-3.9,8.72-8.72
		C24.18,26.6,20.28,22.7,15.46,22.7z M15.46,37.24c-7.51,0-7.5-11.66,0-11.66C22.98,25.59,22.96,37.24,15.46,37.24z"/>
	<path class="st0" d="M74.2,22.7c-4.82,0-8.72,3.9-8.72,8.72c0,4.82,3.9,8.72,8.72,8.72c4.82,0,8.72-3.9,8.72-8.72
		C82.91,26.6,79.01,22.7,74.2,22.7z M74.2,37.24c-7.51,0-7.5-11.66,0-11.66C81.71,25.59,81.69,37.24,74.2,37.24z"/>
</g>
</svg>
