<?xml version="1.0" encoding="utf-8"?>
<!-- Generator: Adobe Illustrator 24.2.1, SVG Export Plug-In . SVG Version: 6.00 Build 0)  -->
<svg version="1.1" id="Layer_1" xmlns="http://www.w3.org/2000/svg" xmlns:xlink="http://www.w3.org/1999/xlink" x="0px" y="0px"
	 viewBox="0 0 91.32 124.77" style="enable-background:new 0 0 91.32 124.77;" xml:space="preserve">
<style type="text/css">
	.st0{fill:#FFFFFF;}
</style>
<g>
	<circle class="st0" cx="39" cy="8.75" r="8.75"/>
	<path class="st0" d="M29.78,57.37L18.57,87.65c-1.37,3.69-0.55,7.96,1.82,9.5l0,0c2.37,1.54,5.43-0.22,6.79-3.91L38.4,62.96
		c0.99-2.68,0.4-5.78-1.32-6.89l-2.36-1.53C32.99,53.42,30.78,54.7,29.78,57.37z"/>
	<path class="st0" d="M38.62,64.8l7.72,14.31c1.74,3.22,4.97,3.79,7.19,1.26l0,0c2.21-2.53,2.6-7.24,0.86-10.46l-7.72-14.31
		c-0.93-1.72-2.66-2.03-3.85-0.67l-4.79,4.23C36.86,60.51,37.69,63.08,38.62,64.8z"/>
	<path class="st0" d="M41.2,31.49l10.9,9.03c2.46,2.03,5.43,1.54,6.62-1.1l0,0c1.18-2.64,1.63-4.95-2.31-8.49l-10.47-8.96
		c-1.31-1.09-3.34-0.88-3.97,0.53l-2,4.46C39.33,28.36,39.88,30.4,41.2,31.49z"/>
	<path class="st0" d="M55.15,41.76l14.15,0.13c3.19,0.03,5.19-2.23,4.44-5.03l0,0c-0.74-2.79-2.57-4.6-5.76-4.63L52.44,31.6
		c-1.71-0.02-2.77,1.2-2.38,2.69l1.26,4.72C51.72,40.51,53.44,41.74,55.15,41.76z"/>
	<path class="st0" d="M45.61,72.89l-3.37,15.97c-0.83,3.92,0.7,8.11,3.39,9.31l0,0c2.69,1.2,5.57-1.02,6.4-4.94l3.37-15.97
		c0.83-3.92-0.7-8.11-3.39-9.31l0,0C49.32,66.75,46.44,68.97,45.61,72.89z"/>
	<path class="st0" d="M39,62.09L39,62.09c-5.27,0-9.59,5.1-9.59-7.19V28.38c0-6.78,4.32-7.97,9.59-7.97l0,0
		c5.27,0,9.59,1.19,9.59,7.97V54.9C48.59,66.35,44.27,62.09,39,62.09z"/>
	<rect x="67.67" y="44.88" class="st0" width="3.12" height="49.02"/>
	<polygon class="st0" points="0,107.14 18.47,102.45 41.53,107.14 63.97,98.55 75.96,100.32 91.32,89.22 91.32,124.77 0,124.77 	"/>
</g>
</svg>
