<?xml version="1.0" encoding="utf-8"?>
<!-- Generator: Adobe Illustrator 24.2.1, SVG Export Plug-In . SVG Version: 6.00 Build 0)  -->
<svg version="1.1" id="Layer_1" xmlns="http://www.w3.org/2000/svg" xmlns:xlink="http://www.w3.org/1999/xlink" x="0px" y="0px"
	 viewBox="0 0 92.18 120.55" style="enable-background:new 0 0 92.18 120.55;" xml:space="preserve">
<style type="text/css">
	.st0{fill:#FFFFFF;}
</style>
<g>
	<circle class="st0" cx="10.06" cy="26.43" r="9.18"/>
	<path class="st0" d="M15.6,50.08l13.41-2.45c3.02-0.55,4.41-3.23,3.1-5.96l0,0c-1.32-2.73-2.82-4.65-7.88-3.96l-13.1,2.15
		c-1.62,0.29-2.66,2.03-1.96,3.48l2.22,4.61C12.09,49.42,13.99,50.37,15.6,50.08z"/>
	<path class="st0" d="M31.73,46.08l9.52-11.39c2.14-2.56,1.64-5.69-1.12-6.95l0,0c-2.76-1.26-5.44-0.97-7.58,1.59L21.69,41.51
		c-1.15,1.37-0.88,3.04,0.6,3.72l4.67,2.12C28.43,48.03,30.58,47.45,31.73,46.08z"/>
	<path class="st0" d="M10.06,82.37L10.06,82.37C4.53,82.37,0,87.72,0,74.83l0-27.81c0-7.11,4.53-8.36,10.06-8.36l0,0
		c5.53,0,10.06,1.25,10.06,8.36v27.81C20.12,86.84,15.59,82.37,10.06,82.37z"/>
	<path class="st0" d="M31.99,79.37L31.99,79.37c0,3.01-2.46,5.48-5.48,5.48H5.76c-3.01,0-5.48-2.46-5.48-5.48v0
		c0-3.01,2.46-5.48,5.48-5.48h20.75C29.52,73.89,31.99,76.36,31.99,79.37z"/>
	<path class="st0" d="M38.65,102.97L38.65,102.97c-2.5,1.24-5.56,0.2-6.79-2.3L22.3,81.35c-1.24-2.5-0.2-5.56,2.3-6.79l0,0
		c2.5-1.24,5.56-0.2,6.79,2.3l9.56,19.32C42.18,98.68,41.15,101.73,38.65,102.97z"/>
	<path class="st0" d="M5.07,113.74L5.07,113.74c-2.79,0-5.07-2.28-5.07-5.07L0,74.5c0-2.79,2.28-5.07,5.07-5.07h0
		c2.79,0,5.07,2.28,5.07,5.07l0,34.17C10.14,111.46,7.86,113.74,5.07,113.74z"/>
	<polygon class="st0" points="39.78,0 52.26,13.67 46.02,26.43 60.58,43.85 50.18,66.64 60.58,84.84 45.13,106.05 73.94,120.55 
		92.18,120.55 92.18,0 	"/>
</g>
</svg>
