<?xml version="1.0" encoding="utf-8"?>
<!-- Generator: Adobe Illustrator 24.2.1, SVG Export Plug-In . SVG Version: 6.00 Build 0)  -->
<svg version="1.1" id="Layer_1" xmlns="http://www.w3.org/2000/svg" xmlns:xlink="http://www.w3.org/1999/xlink" x="0px" y="0px"
	 viewBox="0 0 91.67 68.35" style="enable-background:new 0 0 91.67 68.35;" xml:space="preserve">
<style type="text/css">
	.st0{fill:#FFFFFF;}
	.st1{fill:#F0843C;}
</style>
<g>
	<path class="st0" d="M13.78,28.29c-0.07,0.17-0.13,0.33-0.19,0.5C8.96,40.56,4.5,52.39,0.18,64.28c-0.72,1.98,0.76,4.07,2.86,4.07
		h1.09h83.4h1.09c2.1,0,3.58-2.1,2.86-4.07c-4.31-11.89-8.78-23.72-13.4-35.49c-1.36-3.45-2.74-6.94-4.9-9.95
		c-3.43-4.79-8.55-8.06-13.53-11.2L48.99,0.91c-1.93-1.22-4.39-1.22-6.32,0L32.02,7.63c-4.99,3.14-10.1,6.41-13.53,11.2
		C16.43,21.71,15.07,25,13.78,28.29z"/>
	<path class="st1" d="M54.26,62.51H37.4c-0.74,0-1.34-0.6-1.34-1.34V45.23c0-5.37,4.4-9.77,9.77-9.77h0c5.37,0,9.77,4.4,9.77,9.77
		v15.94C55.6,61.91,55,62.51,54.26,62.51z"/>
</g>
</svg>
